<svg version="1.0" xmlns="http://www.w3.org/2000/svg"
 width="200.000000pt" height="200.000000pt" viewBox="0 0 200.000000 200.000000"
 preserveAspectRatio="xMidYMid meet">
<g transform="translate(0.000000,200.000000) scale(0.100000,-0.100000)"
fill="#000000" stroke="none">
<path d="M578 1876 c-32 -65 -34 -67 -63 -61 -164 35 -308 -13 -404 -135 -55
-69 -76 -136 -76 -240 1 -71 5 -95 27 -142 35 -76 72 -121 135 -164 l51 -36
-14 -33 c-8 -19 -21 -76 -30 -127 -18 -106 -14 -205 14 -316 l18 -70 -71 -32
-70 -32 174 -68 c96 -38 176 -68 177 -67 0 1 30 76 66 167 39 100 60 166 53
168 -6 1 -36 -9 -68 -22 l-56 -25 -11 37 c-20 70 -23 173 -6 244 53 226 228
388 455 420 245 34 499 -132 573 -377 73 -237 -40 -502 -263 -620 -118 -62
-146 -65 -696 -65 l-493 0 0 -110 0 -110 488 0 c269 0 518 5 557 10 307 44
548 259 626 557 27 106 27 269 0 374 -54 208 -191 379 -381 478 -286 149 -634
99 -866 -123 l-66 -63 -30 21 c-107 73 -101 217 12 274 40 20 100 30 100 17 0
-3 -14 -33 -31 -66 -17 -34 -29 -63 -27 -65 5 -4 335 109 344 118 5 6 -71 249
-102 323 l-12 29 -34 -68z"/>
<path d="M1525 239 c-47 -48 -144 -119 -197 -145 -21 -10 -38 -21 -38 -26 0
-4 160 -8 355 -8 l355 0 0 110 0 110 -218 0 -218 0 -39 -41z"/>
</g>
</svg>
